<svg aria-hidden="true" xmlns="http://www.w3.org/2000/svg" xmlns:xlink="http://www.w3.org/1999/xlink"><symbol viewBox="0 0 10 6" id="arrow" xmlns="http://www.w3.org/2000/svg">
<path fill-rule="evenodd" clip-rule="evenodd" d="M0.146484 0.853561L0.853591 0.146454L5.00004 4.2929L9.14648 0.146454L9.85359 0.853561L5.00004 5.70711L0.146484 0.853561Z"/>
</symbol><symbol viewBox="0 0 16 16" id="build" xmlns="http://www.w3.org/2000/svg">
<path d="M0.266665 15.4667H1.86667V6.66667C1.86667 6.5194 1.98607 6.4 2.13333 6.4H5.86667V0.266667C5.86667 0.1194 5.98607 0 6.13333 0H13.0667C13.2139 0 13.3333 0.1194 13.3333 0.266667V15.4667H15.7333C15.8806 15.4667 16 15.5861 16 15.7333C16 15.8806 15.8806 16 15.7333 16H0.266665C0.119399 16 0 15.8806 0 15.7333C0 15.5861 0.119399 15.4667 0.266665 15.4667ZM10.4 15.4667H11.4667V13.0667C11.4667 12.9194 11.3473 12.8 11.2 12.8H10.6667C10.5194 12.8 10.4 12.9194 10.4 13.0667V15.4667ZM9.33333 6.66667V15.4667H9.86667V13.0667C9.86667 12.6248 10.2248 12.2667 10.6667 12.2667H11.2C11.6418 12.2667 12 12.6248 12 13.0667V15.4667H12.8V0.533333H6.4V6.4H9.06667C9.21393 6.4 9.33333 6.5194 9.33333 6.66667ZM2.4 15.4667H8.8V6.93333H2.4V15.4667Z"/>
<path d="M7.46658 3.7334H9.06659C9.21385 3.7334 9.33325 3.8528 9.33325 4.00007V5.60007C9.33325 5.74733 9.21385 5.86673 9.06659 5.86673H7.46658C7.31932 5.86673 7.19992 5.74733 7.19992 5.60007V4.00007C7.19992 3.8528 7.31932 3.7334 7.46658 3.7334ZM7.73325 5.3334H8.79992V4.26673H7.73325V5.3334Z"/>
<path d="M7.46658 1.06665H9.06659C9.21385 1.06665 9.33325 1.18605 9.33325 1.33332V2.93332C9.33325 3.08058 9.21385 3.19998 9.06659 3.19998H7.46658C7.31932 3.19998 7.19992 3.08058 7.19992 2.93332V1.33332C7.19992 1.18605 7.31932 1.06665 7.46658 1.06665ZM7.73325 2.66665H8.79992V1.59998H7.73325V2.66665Z"/>
<path d="M10.1333 3.7334H11.7333C11.8806 3.7334 12 3.8528 12 4.00007V5.60007C12 5.74733 11.8806 5.86673 11.7333 5.86673H10.1333C9.98607 5.86673 9.86667 5.74733 9.86667 5.60007V4.00007C9.86667 3.8528 9.98607 3.7334 10.1333 3.7334ZM10.4 5.3334H11.4667V4.26673H10.4V5.3334Z"/>
<path d="M10.1333 1.06665H11.7333C11.8806 1.06665 12 1.18605 12 1.33332V2.93332C12 3.08058 11.8806 3.19998 11.7333 3.19998H10.1333C9.98607 3.19998 9.86667 3.08058 9.86667 2.93332V1.33332C9.86667 1.18605 9.98607 1.06665 10.1333 1.06665ZM10.4 2.66665H11.4667V1.59998H10.4V2.66665Z"/>
<path d="M10.1333 6.3999H11.7333C11.8806 6.3999 12 6.5193 12 6.66657V8.26657C12 8.41384 11.8806 8.53324 11.7333 8.53324H10.1333C9.98607 8.53324 9.86667 8.41384 9.86667 8.26657V6.66657C9.86667 6.5193 9.98607 6.3999 10.1333 6.3999ZM10.4 7.9999H11.4667V6.93324H10.4V7.9999Z"/>
<path d="M10.1333 9.06665H11.7333C11.8806 9.06665 12 9.18605 12 9.33332V10.9333C12 11.0806 11.8806 11.2 11.7333 11.2H10.1333C9.98607 11.2 9.86667 11.0806 9.86667 10.9333V9.33332C9.86667 9.18605 9.98607 9.06665 10.1333 9.06665ZM10.4 10.6667H11.4667V9.59998H10.4V10.6667Z"/>
<path d="M5.06659 12.2666H3.46659C3.31932 12.2666 3.19992 12.1472 3.19992 12V10.4C3.19992 10.2527 3.31932 10.1333 3.46659 10.1333H5.06659C5.21385 10.1333 5.33325 10.2527 5.33325 10.4V12C5.33325 12.1472 5.21385 12.2666 5.06659 12.2666ZM4.79992 10.6666H3.73325V11.7333H4.79992V10.6666Z"/>
<path d="M5.06659 9.59989H3.46659C3.31932 9.59989 3.19992 9.48049 3.19992 9.33322V7.73322C3.19992 7.58595 3.31932 7.46655 3.46659 7.46655H5.06659C5.21385 7.46655 5.33325 7.58595 5.33325 7.73322V9.33322C5.33325 9.48049 5.21385 9.59989 5.06659 9.59989ZM4.79992 7.99989H3.73325V9.06655H4.79992V7.99989Z"/>
<path d="M5.06659 14.9334H3.46659C3.31932 14.9334 3.19992 14.814 3.19992 14.6667V13.0667C3.19992 12.9194 3.31932 12.8 3.46659 12.8H5.06659C5.21385 12.8 5.33325 12.9194 5.33325 13.0667V14.6667C5.33325 14.814 5.21385 14.9334 5.06659 14.9334ZM4.79992 13.3334H3.73325V14.4H4.79992V13.3334Z"/>
<path d="M7.73333 12.2666H6.13333C5.98607 12.2666 5.86667 12.1472 5.86667 12V10.4C5.86667 10.2527 5.98607 10.1333 6.13333 10.1333H7.73333C7.8806 10.1333 8 10.2527 8 10.4V12C8 12.1472 7.8806 12.2666 7.73333 12.2666ZM7.46667 10.6666H6.4V11.7333H7.46667V10.6666Z"/>
<path d="M7.73333 9.59989H6.13333C5.98607 9.59989 5.86667 9.48049 5.86667 9.33322V7.73322C5.86667 7.58595 5.98607 7.46655 6.13333 7.46655H7.73333C7.8806 7.46655 8 7.58595 8 7.73322V9.33322C8 9.48049 7.8806 9.59989 7.73333 9.59989ZM7.46667 7.99989H6.4V9.06655H7.46667V7.99989Z"/>
<path d="M7.73333 14.9334H6.13333C5.98607 14.9334 5.86667 14.814 5.86667 14.6667V13.0667C5.86667 12.9194 5.98607 12.8 6.13333 12.8H7.73333C7.8806 12.8 8 12.9194 8 13.0667V14.6667C8 14.814 7.8806 14.9334 7.73333 14.9334ZM7.46667 13.3334H6.4V14.4H7.46667V13.3334Z"/>
</symbol><symbol viewBox="0 0 18 18" id="duration" xmlns="http://www.w3.org/2000/svg">
<path d="M17.0682 1.76033L10.1932 16.7603C10.1357 16.886 10.0381 16.989 9.91582 17.0533C9.7935 17.1177 9.65332 17.1396 9.5172 17.1158C9.38108 17.092 9.25669 17.0237 9.16348 16.9217C9.07028 16.8197 9.01352 16.6896 9.00208 16.5519L8.42083 9.57896L1.44789 8.99771C1.31017 8.98627 1.18013 8.92951 1.0781 8.8363C0.976073 8.7431 0.90781 8.61871 0.88399 8.48258C0.860169 8.34646 0.882135 8.20628 0.946451 8.08397C1.01077 7.96166 1.11381 7.86411 1.23945 7.80658L16.2395 0.93158C16.3554 0.878438 16.4849 0.862048 16.6104 0.884614C16.736 0.907179 16.8516 0.967618 16.9418 1.05781C17.032 1.14801 17.0924 1.26365 17.115 1.38919C17.1375 1.51474 17.1212 1.64418 17.068 1.76014L17.0682 1.76033Z"/>
</symbol><symbol viewBox="0 0 21 18" id="email" xmlns="http://www.w3.org/2000/svg">
<path fill-rule="evenodd" clip-rule="evenodd" d="M3.60003 5.70003C3.76571 5.47912 4.07912 5.43434 4.30003 5.60003L9.70003 9.65003C9.87781 9.78336 10.1223 9.78336 10.3 9.65003L15.7 5.60003C15.9209 5.43434 16.2343 5.47912 16.4 5.70003C16.5657 5.92094 16.5209 6.23434 16.3 6.40003L10.9 10.45C10.3667 10.85 9.63336 10.85 9.10003 10.45L3.70003 6.40003C3.47912 6.23434 3.43434 5.92094 3.60003 5.70003Z"/>
<path fill-rule="evenodd" clip-rule="evenodd" d="M16 1H5C2.79086 1 1 2.79086 1 5V13C1 15.2091 2.79086 17 5 17H16C18.2091 17 20 15.2091 20 13V5C20 2.79086 18.2091 1 16 1ZM5 0C2.23858 0 0 2.23858 0 5V13C0 15.7614 2.23858 18 5 18H16C18.7614 18 21 15.7614 21 13V5C21 2.23858 18.7614 0 16 0H5Z"/>
</symbol><symbol viewBox="0 0 7 13" id="fb" xmlns="http://www.w3.org/2000/svg">
<path fill-rule="evenodd" clip-rule="evenodd" d="M6.10837 2.24446C5.78831 2.14321 5.42023 2.0757 5.08417 2.0757C4.66809 2.0757 3.77191 2.36259 3.77191 2.91948V4.25266H5.90033V6.49712H3.77191V12.6905H1.6275V6.49712H0.571289V4.25266H1.6275V3.12199C1.6275 1.41755 2.36364 0 4.13999 0C4.7481 0 5.83632 0.0337513 6.42843 0.253134L6.10837 2.24446Z"/>
</symbol><symbol viewBox="0 0 16 16" id="inst" xmlns="http://www.w3.org/2000/svg">
<g clip-path="url(#fclip0_1_511)">
<path d="M13.6562 0H2.34375C1.05156 0 0 1.05156 0 2.34375V13.6562C0 14.9487 1.05156 16 2.34375 16H13.6562C14.9487 16 16 14.9487 16 13.6562V2.34375C16 1.05156 14.9487 0 13.6562 0ZM15.0625 13.6562C15.0625 14.4316 14.4316 15.0625 13.6562 15.0625H2.34375C1.56844 15.0625 0.9375 14.4316 0.9375 13.6562V2.34375C0.9375 1.56844 1.56844 0.9375 2.34375 0.9375H13.6562C14.4316 0.9375 15.0625 1.56844 15.0625 2.34375V13.6562Z"/>
<path d="M13.1562 1.90625C12.6394 1.90625 12.2188 2.32687 12.2188 2.84375C12.2188 3.36063 12.6394 3.78125 13.1562 3.78125C13.6731 3.78125 14.0938 3.36063 14.0938 2.84375C14.0938 2.32687 13.6731 1.90625 13.1562 1.90625Z"/>
<path d="M8 3.78125C5.67375 3.78125 3.78125 5.67375 3.78125 8C3.78125 10.3263 5.67375 12.2188 8 12.2188C10.3263 12.2188 12.2188 10.3263 12.2188 8C12.2188 5.67375 10.3263 3.78125 8 3.78125ZM8 11.2812C6.19062 11.2812 4.71875 9.80937 4.71875 8C4.71875 6.19062 6.19062 4.71875 8 4.71875C9.80937 4.71875 11.2812 6.19062 11.2812 8C11.2812 9.80937 9.80937 11.2812 8 11.2812Z"/>
</g>
<defs>
<clipPath id="fclip0_1_511">
<rect width="16" height="16"/>
</clipPath>
</defs>
</symbol><symbol viewBox="0 0 14 14" id="leaf" xmlns="http://www.w3.org/2000/svg">
<g clip-path="url(#gclip0_1_199)">
<path d="M13.6544 0.150827C13.2855 0.0428744 4.26245 -0.855475 1.09361 3.42567C-0.309832 5.32223 -0.330914 7.9221 1.02328 11.1525C0.679764 11.8655 0.379038 12.6166 0.133956 13.4091C0.0594446 13.6499 0.194222 13.9052 0.434764 13.9795C0.479608 13.9934 0.525026 14 0.56987 14C0.764338 14 0.944888 13.8744 1.00515 13.6787C3.42037 5.87028 11.2693 2.09267 13.6762 1.13835C13.9105 1.0454 14.2235 0.317405 13.6544 0.150827Z"/>
<path d="M2.47192 12.1298C3.77832 12.6778 5.08453 12.9587 6.29922 12.9587C7.39103 12.9587 8.40923 12.7342 9.28663 12.279C11.0525 11.363 12.1315 9.61081 12.4071 7.21132C12.6878 4.7659 13.0373 3.23416 13.3289 2.29712C10.7336 3.49428 5.16878 6.5974 2.47192 12.1298Z"/>
</g>
<defs>
<clipPath id="gclip0_1_199">
<rect width="14" height="14"/>
</clipPath>
</defs>
</symbol><symbol viewBox="0 0 20 20" id="like" xmlns="http://www.w3.org/2000/svg">
<path d="M18.3644 2.45457C17.33 1.34265 15.8804 0.709981 14.3617 0.707636C12.8417 0.709395 11.3906 1.34173 10.3546 2.45386L10.0015 2.82698L9.64836 2.45386C7.59251 0.241198 4.13215 0.114128 1.91953 2.16998C1.82148 2.26112 1.72679 2.35577 1.63565 2.45386C-0.545218 4.80619 -0.545218 8.44162 1.63565 10.794L9.48255 19.069C9.75403 19.3556 10.2064 19.3679 10.493 19.0964C10.5024 19.0875 10.5115 19.0784 10.5204 19.069L18.3645 10.794C20.5452 8.44187 20.5452 4.80665 18.3644 2.45457ZM17.3302 9.80969H17.3294L10.0015 17.5386L2.67282 9.80969C1.00676 8.01229 1.00676 5.23481 2.67282 3.43741C4.1858 1.79757 6.74172 1.69475 8.38156 3.20773C8.46118 3.28119 8.53778 3.35779 8.61124 3.43741L9.48255 4.35663C9.76969 4.64193 10.2333 4.64193 10.5204 4.35663L11.3917 3.43812C12.9047 1.79828 15.4606 1.69546 17.1005 3.20844C17.1801 3.2819 17.2567 3.3585 17.3302 3.43812C19.0107 5.23837 19.023 8.02092 17.3302 9.80969Z"/>
</symbol><symbol viewBox="0 0 14 14" id="map" xmlns="http://www.w3.org/2000/svg">
<path d="M13.5009 3.56123e-08C13.4232 -2.92608e-05 13.3466 0.0180173 13.2771 0.0527336L9.48821 1.94771L5.20378 0.0432416C5.19678 0.0402533 5.18878 0.039726 5.18128 0.0367378C5.16201 0.0295308 5.14229 0.0235251 5.12228 0.0187497C5.10239 0.0133885 5.08217 0.00919911 5.06178 0.00624017C5.02118 0.00290038 4.98037 0.00290038 4.93979 0.00624017C4.9194 0.00919911 4.89919 0.0133885 4.8793 0.0187497C4.85929 0.0235251 4.83957 0.0295308 4.82029 0.0367378C4.81279 0.039726 4.80479 0.040224 4.79779 0.0432416L0.297862 2.04322C0.11722 2.12343 0.000825201 2.30255 0.000854498 2.50019V13.5C0.000942387 13.6692 0.0865172 13.8268 0.228341 13.919C0.370195 14.0114 0.549108 14.0257 0.703822 13.957L5.00076 12.047L9.29769 13.957C9.30519 13.96 9.31319 13.957 9.32069 13.9615C9.44174 14.0157 9.5807 14.0126 9.69917 13.953C9.70717 13.9496 9.71616 13.953 9.72416 13.9475L13.7241 11.9476C13.8936 11.8629 14.0007 11.6896 14.0006 11.5V0.500237C14.0008 0.224088 13.777 0.000117221 13.5009 3.56123e-08ZM4.50079 11.1751L1.00083 12.7305V2.8252L4.50079 1.26971V11.1751ZM9.00072 12.7305L5.50076 11.1751V1.26971L9.00072 2.82517V12.7305ZM13.0006 11.1911L10.0007 12.691V2.80918L13.0006 1.3092V11.1911Z"/>
</symbol><symbol viewBox="0 0 12 13" id="play" xmlns="http://www.w3.org/2000/svg">
<path d="M12 6.5L0.749999 12.9952L0.75 0.00480889L12 6.5Z"/>
</symbol><symbol viewBox="0 0 12 12" id="send" xmlns="http://www.w3.org/2000/svg">
<path d="M11.3433 0.242391L5.02577 6.58323C4.95335 6.54127 4.87719 6.50611 4.79827 6.47823L0.627435 5.06656C0.501303 5.03495 0.389349 4.9621 0.309355 4.85958C0.229361 4.75706 0.185913 4.63076 0.185913 4.50072C0.185913 4.37069 0.229361 4.24439 0.309355 4.14187C0.389349 4.03935 0.501303 3.9665 0.627435 3.93489L10.9758 0.254058C11.0434 0.231089 11.1143 0.219268 11.1858 0.219058C11.2392 0.218197 11.2924 0.226079 11.3433 0.242391Z"/>
<path d="M11.7459 1.02424L8.06503 11.3842C8.02444 11.505 7.94545 11.6091 7.84012 11.6807C7.73479 11.7524 7.6089 11.7875 7.4817 11.7809C7.35303 11.7868 7.22602 11.7499 7.1205 11.6761C7.01498 11.6022 6.93687 11.4955 6.89836 11.3726L5.51003 7.20174C5.48214 7.12282 5.44699 7.04666 5.40503 6.97424L11.7575 0.656738C11.7934 0.777293 11.7893 0.906199 11.7459 1.02424Z"/>
</symbol><symbol viewBox="0 0 46 44" id="send-2" xmlns="http://www.w3.org/2000/svg">
<path d="M37.6105 12.9904C38.3018 14.1878 38.2092 15.6136 37.3677 16.711L18.894 40.8182C18.1321 41.8123 16.8776 42.3191 15.5948 42.0729C14.3387 41.8313 13.3427 40.9156 12.9971 39.6841L10.2635 29.9555L9.97886 28.9435L9.24487 28.191L2.18643 20.9595C1.29269 20.0444 0.9977 18.724 1.41656 17.5154C1.83111 16.3206 2.87082 15.4536 4.15272 15.2856L34.267 11.3404C35.6381 11.1604 36.9192 11.793 37.6105 12.9904Z"/>
<path d="M10.2636 29.9555L12.997 39.6841C13.3427 40.9157 14.3386 41.8313 15.5948 42.0729C16.8776 42.3192 18.1321 41.8124 18.8939 40.8182L37.3677 16.7111C38.2092 15.6137 38.3018 14.1879 37.6105 12.9905L9.97889 28.9436L10.2636 29.9555Z"/>
<path d="M21.2231 22.4515C21.5043 22.9385 21.3379 23.5616 20.8503 23.8431L10.2636 29.9553L9.97887 28.9434L9.24487 28.1909L19.8316 22.0787C20.3192 21.7973 20.942 21.9646 21.2231 22.4515Z"/>
<path d="M10.2637 29.9554L20.8505 23.8432C21.338 23.5617 21.5045 22.9387 21.2233 22.4517L9.97905 28.9435L10.2637 29.9554Z"/>
<defs>
<linearGradient id="kpaint0_linear_1_491" x1="17.4077" y1="23.5441" x2="18.5452" y2="25.8251" gradientUnits="userSpaceOnUse">
<stop stop-color="#747DEF"/>
<stop offset="1" stop-color="#5E3BE1"/>
</linearGradient>
<linearGradient id="kpaint1_linear_1_491" x1="17.9029" y1="24.4017" x2="18.507" y2="25.5259" gradientUnits="userSpaceOnUse">
<stop stop-color="#747DEF"/>
<stop offset="1" stop-color="#5E3BE1"/>
</linearGradient>
</defs>
</symbol><symbol viewBox="0 0 16 13" id="twiter" xmlns="http://www.w3.org/2000/svg">
<path d="M16 1.539C15.405 1.8 14.771 1.973 14.11 2.057C14.79 1.651 15.309 1.013 15.553 0.244C14.919 0.622 14.219 0.889 13.473 1.038C12.871 0.397 12.013 0 11.077 0C9.261 0 7.799 1.474 7.799 3.281C7.799 3.541 7.821 3.791 7.875 4.029C5.148 3.896 2.735 2.589 1.114 0.598C0.831 1.089 0.665 1.651 0.665 2.256C0.665 3.392 1.25 4.399 2.122 4.982C1.595 4.972 1.078 4.819 0.64 4.578C0.64 4.588 0.64 4.601 0.64 4.614C0.64 6.208 1.777 7.532 3.268 7.837C3.001 7.91 2.71 7.945 2.408 7.945C2.198 7.945 1.986 7.933 1.787 7.889C2.212 9.188 3.418 10.143 4.852 10.174C3.736 11.047 2.319 11.573 0.785 11.573C0.516 11.573 0.258 11.561 0 11.528C1.453 12.465 3.175 13 5.032 13C11.068 13 14.368 8 14.368 3.666C14.368 3.521 14.363 3.381 14.356 3.242C15.007 2.78 15.554 2.203 16 1.539Z"/>
</symbol></svg>